<?xml version="1.0" encoding="utf-8"?>
<!-- Generator: Adobe Illustrator 23.0.0, SVG Export Plug-In . SVG Version: 6.00 Build 0)  -->
<svg version="1.1" id="Layer_1" xmlns="http://www.w3.org/2000/svg" xmlns:xlink="http://www.w3.org/1999/xlink" x="0px" y="0px"
	 viewBox="0 0 1894.8 367.1" style="enable-background:new 0 0 1894.8 367.1;" xml:space="preserve">
<style type="text/css">
	.st0{fill:#757575;}
	.st1{fill:#3F4040;}
</style>
<title>logo_label_business</title>
<g id="Label">
	<g id="Logo">
		<g id="Icon">
			<path class="st0" d="M330.8,334.7c-1.4,0.2-6.6,0.3-7.9,0.4c-3.8,0.3-7.4,0.1-11.2,0.2c-4.1,0.1-8.1-0.2-12.2-0.2
				c-7.1-0.1-14.1-1.8-20.5-4.9c-4.3-2.1-8.4-4.7-12.6-7c-0.4-0.2-1.1-0.1-1.6-0.1c0.1,0.7,0.1,1.7,0.5,2c5.1,3.8,9.7,8.3,15.9,10
				c4.6,1.3,9.1,3.3,13.8,4.1c4.2,0.7,8.6,0.2,12.9,0.2c1.8,0,3.6-0.3,5.4-0.2c5.3,0.3,8.9,0.3,13.4,0.4l-0.7,0.3
				c-8.8,4.3-18.4,4.7-27.8,5.1c-5.7,0.1-11.4-0.2-17-1c-3.7-0.5-7.4-1.2-11-2.3c-6.1-1.7-12.3-3.2-18-5.8
				c-9.5-4.3-19-9.1-26.9-16.5c-3.5-3.3-7.2-6.3-10.4-9.8c-2.7-2.9-5.2-6.1-7.4-9.4c-3.9-5.6-7.6-11.5-10.9-17.5
				c-4.5-8.4-7.6-17.5-9.3-26.9c-0.3-1.1-0.8-2.3-1.3-3.3l-0.8,0.2c-0.6,4.2-1.6,8.3-0.5,12.6c1.3,4.9,2.1,10,4,14.6
				c3.2,7.5,6.8,14.8,10.8,21.9c2.5,4.3,6,8,9.1,11.9c2.6,3.2,5.2,6.3,8,9.3c3.3,3.6,6.8,7.1,10.2,10.6l-0.6,0.8
				c-4.2-0.1-7.4-2.8-10.9-4.9c-6-3.5-11.3-8-15.7-13.4c-1.9-2.4-4.2-4.5-6-7c-3-4.1-6.2-8.1-8.6-12.6s-4-9.2-5.7-14
				c-5.5-15-9.8-30.2-10.1-46.5c0-1-0.4-2-0.4-3.1c-0.1-1.9,0-3.7-0.1-5.6c-0.1-1.4-0.3-2.7-0.5-4.1h-1.3c-0.6,4-1.5,8.1-1.9,12.1
				c-0.8,9.5,0,19,2.5,28.1c3.4,13.4,9.6,25.5,15.5,37.7c0.6,1,1.4,1.9,2.3,2.7c1.1,1.2,1.8,2.5,0.7,4.5c-1.3-0.6-2.5-1.4-3.6-2.3
				c-1.5-1.4-2.9-3-4.1-4.7c-4.4-6.2-9.5-12-12.8-18.8c-4-8.3-6.4-17.5-9.5-26.3c-3-8.3-2.5-17.2-3.8-25.8c0-0.7,0-1.3,0.1-2
				c0.3-5.1,0.5-10.3,0.9-15.4c0.1-3.6,0.5-7.3,1.1-10.8c1.4-6.2,3.3-12.2,5-18.3c0-0.6-0.1-1.2-0.3-1.7c-0.6,0.3-1.3,0.4-1.7,0.9
				c-0.6,0.9-1.1,1.9-1.6,2.9c-3.2,5.4-4.6,11.5-5.8,17.6c-0.6,3.7-0.9,7.4-1,11.1c-0.3,4.9-0.8,9.8-0.5,14.6
				c0.5,7.1,1.7,14.2,2.5,21.3c0.1,1.1,0,2.2-0.1,3.3l-1,0.1c-0.6-0.7-1-1.4-1.4-2.2c-1.5-3.9-3-7.9-4.3-11.8
				c-3.2-9.7-4.8-19.9-4.8-30.2c-0.1-3.7,0.1-7.3,0.4-11c0.5-3.4,1.1-6.8,1.9-10.1c1.6-7,3.2-14,5-20.9c0.4-1.5,1.4-2.8-1-3.3
				c-0.5-0.1-1-1.3-1-2c0.1-1.4,0.3-2.8,0.8-4.1c4.3-11.2,8.5-22.5,16.3-31.6c4.9-5.8,9.5-12,14.6-17.6c4.6-5,9.4-9.7,14.6-14.1
				c4.2-3.4,8.7-6.5,13.4-9.3c2.4-1.5,4.4-3,5.7-5.6c0.9-2,2-3.9,3.4-5.7c3.5-4.1,7.2-8.2,11-12c1.5-1.4,3.2-2.5,5.1-3.2
				c2.4-1,3.4,0,3.5,2.8c0.1,2.1-0.1,4.2,0.1,6.2c0.2,2.3,1.4,3.3,3.6,2.8c6.6-1.4,13.2-2.5,19.8-4c6.2-1.3,11.3,0.5,15.5,5.4
				c1.1,1.5,3.1,2.2,4.9,1.6c1.9-0.6,3.9-0.9,6-1c8.4,0,16.8,0.2,25.1,0.5c5.9,0.2,11.9,0.5,17.8,1.1c1.4,0.4,2.6,1.4,3.1,2.8
				c2,5.3,1.9,10.9,1,16.4c-0.3,1.4-1,2.7-2.2,3.6c-2.3,1.3-4.8,2.4-7.4,3.3c-2.1,0.7-4.2,1.2-6.3,1.5c-1,0-2-0.2-2.9-0.6
				c-2.5-0.7-5.1-2.3-7.5-2c-11,1.7-20.2,6.4-24.6,18.5c-2,5.4-0.2,10.3,4.9,12.4c3.1,1.3,6.2,1.3,9.4,1.7c5.3,0.7,10-0.7,14.9-2.4
				c1.8-0.5,3.2-1.8,3.8-3.5c0.2-0.7,2.1-1.6,2.5-1.3c2.2,1.5,4.4,1,6.6,0.4c2.1-0.6,3.3,0.4,3.6,2.5c0.2,1.5,0.1,3-0.2,4.4
				c-1.5,5.3-5.3,8.8-9.3,11.9c-1.3,0.9-2.8,1.5-4.4,1.8c-7.3,1.7-14.6,3-21.6,6.4c-15.9,7.8-24.9,21.2-29.3,38.6
				c-2.5,10.1-3.2,20.5-2,30.8c1,9.4,3.5,18.6,7.5,27.1c4.3,8.9,9.8,17.2,16.4,24.7c3.6,4.3,8.1,7.8,12.5,11.4c6,5,13.3,8.3,21,9.7
				c6.5,1,13,1.6,19.5,1.7c9.1,0.4,18.3-1,26.9-4.2c8.5-3.2,16.4-7.8,23.3-13.8c7.3-6.5,13.3-14.4,17.5-23.2
				c3.3-6.6,6-13.4,8.2-20.4c1.3-7.1,2-14.4,2-21.6c0.1-6.5-0.4-13-1.6-19.4c-2.1-11.3-6.6-22-13.1-31.5c-3.5-5-6.9-8.1-11-10.1
				c-2.3-1.1-2.7-0.8-8.7-2.4c-15-3.8-17.9-6.9-18.9-8.2c-2.1-2.7-3.1-4-3.5-6c-0.1-0.9-0.5-1.8-1-2.6c-0.5-0.8-1.2-1.4-2-1.8
				c-3.7-2-7.1-20.1-7.2-20.1c0.3,1.4,0.6,2.8,0.7,4.2c0.2,2.2,0,3.9,0.7,4.2c0.2,0.1,0.5,0,0.7-0.1c1.9-1.1,0.2-8.6,0.3-8.6
				s1.2,7.3,1.2,7.3c1.1,7.1,1.6,8.1,2.5,9.1c1.6,1.8,4.4,3.1,6.2,2.1c0.7-0.4,0.9-1,1.9-1.3c1.2-0.3,2.4-0.2,3.5,0.5
				c0,0,2.4,1.1,8.1,3.2c3.4,1.2,7.1,1.2,10.5,0c0.9-0.3,6.3-2.4,7.5-7.3c0.2-1.3,0.2-2.6,0-3.8c-0.5-4.7-1.8-5.8-3.6-11.9
				c-1.1-3.8-1.4-5.9-3.2-8.7c-0.6-0.9-1.3-1.8-2.1-2.5c-0.9-0.8-3.3-3-5.7-2.5c-1.8,0.4-2.9,2.2-4,4.3c-2.8,5.1-2.8,9.5-3.1,9.4
				s-1.2-7.8,2.8-14.1c1-1.6,2.1-3.3,4-3.8c2-0.4,4-0.3,5.9,0.5c0.6,0.3,1,0.5,1.1,0.3c0.5-0.5-1.3-5.2-4.5-6
				c-2.1-0.5-3.9,0.9-5.4,2c-0.8,0.6-2.4,2-5.1,7c-2.3,4.4-2.9,6.8-3.1,6.7c-0.4-0.1,0.3-9.8,6.6-16.8c1.6-1.8,4.8-5.4,9.7-5.9
				c4.8-0.5,8.5,2.1,10.1,3.3c2.3,1.7,4.3,3.8,5.9,6.3c4.6,7.1,16,25.1,19.3,30c6.9,10.4,7.4,8.3,10.5,14c0.2,0.4,0.5,0.9,0.8,1.5
				c6,12.9-1.5,72.3-1.5,72.3c-0.4,2.8-1.1,8.9-2.6,17s-3,14.2-3.5,16.1c-0.8,3.2-1.8,7.6-3.6,12.9c-2,6-3.9,12.2-6.8,17.6
				c-3.6,6.7-8.2,12.8-12.4,19.2c-5.1,7.8-11.6,14-18.5,19.7c-3.7,3-7.5,5.8-11.5,8.3c-6.3,4-12.7,7.9-19.2,11.7
				c-0.8,0.5-1.7,1-2.5,1.4l-2.1,1.1c-0.8,0-1.6,0-2.5,0c-7.1-0.1-14.1-1.8-20.5-4.9c-4.3-2.1-8.4-4.7-12.6-7
				c-0.4-0.2-1.1-0.1-1.6-0.1c0.1,0.7,0.1,1.7,0.5,2c5.1,3.8,9.7,8.3,15.9,10c4.6,1.3,9.1,3.3,13.8,4.1L330.8,334.7z M253.1,83.7
				c0-0.5-1.1-1.4-1.8-1.6c-1.6-0.4-3.3-0.5-4.9-0.4c-0.7,0.1-1.9,1.1-2,1.7c0.1,1,0.7,1.8,1.5,2.3c1.9,0.3,3.7,0.4,5.6,0.4
				C252.1,85.2,253,84.5,253.1,83.7L253.1,83.7z M322.2,80.6c0.6-0.9,1.5-1.6,1.6-2.4c0-0.5-1.1-1.4-1.8-1.6
				c-1.6-0.4-3.3-0.5-4.9-0.4c-0.7,0.1-1.9,1.1-2,1.7c0.1,1,0.7,1.8,1.5,2.3C318.4,80.5,320.3,80.6,322.2,80.6L322.2,80.6z
				 M405.7,112.8c0.4-0.9-0.1-3.2-0.8-3.5c-1.2-0.4-2.6-0.2-3.6,0.6c-0.5,0.5,0.2,2.4,0.4,4.5C403.6,113.8,405.3,113.7,405.7,112.8z
				"/>
			<path class="st0" d="M0.1,111.4c-0.6,9.6,0.7,19.3,4,28.4c5.1,14.2,13.7,25.7,24.2,35.6c8.1,7.6,17,14.2,26.7,19.7
				c0.3,0.2,0.6,0.4,0.7,0.7c-9.8-3.1-19.1-7.3-27.9-12.6c-8.9-5.3-17.6-11-26.7-16.8c0.8,3,1.5,6,2.5,8.9c4.3,12,12.3,20.9,22,28
				c9.5,7,20.1,11.7,30.9,15.7c0.7,0.2,1.4,0.6,2,1c-8.1-0.6-16-2.3-23.6-5.1c-7.6-2.9-15.1-6.3-22.6-9.5c5.2,12,12.1,22.8,23,30
				c11,7.3,23.2,8.7,36,6.4c-3.6,3.2-13.9,5.6-30.2,7.1c6.3,6.7,13.3,11.7,21.9,13.7s16.8,0,24.9-4.6c-2.6,7.4-7.8,11.7-13,15.9
				c8.4,6.3,22.5,6.4,34-4.4c1.3,3,0.6,5.7-0.3,8.3s-2,5.2-2.9,7.8c9.3,2.4,16.6-2.5,23-15.1c7.8,15.1,21.2,17.3,35.7,18.4
				c-1.6-2-2.9-3.5-4.1-5.2c-8.9-11.8-14.8-25.2-19.6-39.3c-2.7-8-4.7-16.2-7.2-24.3c-0.3-1-1.1-1.9-2-2.4
				C106.8,205.5,83.9,190,62.6,172c-11-9.3-21.8-19-32.2-29.1S10.2,121.9,0.1,111.4z"/>
		</g>
		<g id="D">
			<path id="Part_2" class="st1" d="M338.3,93.7L338.3,93.7l0.1-0.1c0.1-0.1,0.2-0.2,0.3-0.3c-3-16.3-9.9-28.4-17.8-39.9h-23.6
				c12.7,14.6,21.1,33,22.5,58.8C325.9,106,332.1,99.8,338.3,93.7z"/>
			<path id="Part_1" class="st1" d="M341.3,122.9l-22.5,22.5l-0.1,0.1c-2,16-6.8,31.5-14.3,45.8c-10.5,20.2-24.6,36-42.4,47.3
				c-13.5,8.6-27.4,14.6-43.1,16.7c-3.1,3.3-5.2,5.5-8.3,8.5c-2.7,2.6-6.4,6.3-9.3,8.6h2.1c25.7,0,48.3-6.6,69.4-18.3
				s37.8-28.7,50.1-50.8s18.5-47,18.5-76.7C341.4,125.3,341.4,124.1,341.3,122.9z"/>
			<path id="Main" class="st1" d="M301.8,30.2c-26.2-19-60.7-27-104.3-27c-10.2,0-27.8,0.8-52.7,2.3l-23.7,1.1
				c-10.6,0.5-19.1,0.8-25.6,0.8c-8.7,0-15-0.4-18.7-1.1c-4.4-1-8.7-2.5-12.7-4.5c-1.2,3.4-1.8,6.9-1.9,10.5c0,5.2,1.3,8.9,3.9,10.9
				c2.6,2,6.7,3,12.2,3c5.5,0,18.1-1.4,37.8-4.1c11.2-1.7,18.8-2.6,22.8-2.6c5.2,0,7.9,2.4,7.9,7.1c0,7.2-5.4,38.1-16.1,92.7
				s-18.3,91.9-22.8,111.8c-0.5,3.2-1.5,6.3-3,9.2c-1.7,2.8-3.6,5.4-5.6,8c2.6,1.8,5.3,3.3,8.2,4.5c2.3,0.6,4.7,1,7.1,1.1
				c4.7,0.3,9.3,1.1,13.8,2.4c5,1.4,10,2.9,15,4.7c11.5,3.5,20.4,5.8,28.8,7.7l1.6,0.3c1.4-1,2.8-2.1,4.2-3.2c2-1.7,4.1-3.6,6-5.5
				c2-2.1,3.8-3.3,5.6-5.3c0.1-0.1,0.2-0.2,0.3-0.3c-7.6-0.7-15.2-2.1-22.6-4.3c-11.7-3.5-21.7-8.1-29.9-13.8
				c-4.2-2.7-6.4-5.7-6.4-9c0-2.7,0.9-8,2.6-15.7c12.2-63.1,24.3-124.4,36.3-184c0.8-4,3.6-7.3,7.5-8.6c4-1.5,11.2-2.3,21.7-2.3
				c30,0,55.1,4.3,75.8,15.6H305C303.9,31.8,302.8,31,301.8,30.2z"/>
		</g>
		<g id="Z">
			<path class="st1" d="M504.5,317.2c1.5,3.3,2.3,7,2.3,10.6c0,9-3.9,16.8-11.8,23.5c-7.9,6.7-20,10.1-36.5,10.1
				c-16.2-0.1-32.3-2.1-48-6.2c-16.3-4.1-38.1-10.7-65.2-19.6l-34.4-11.2c-25.9-8.3-52.2-15.3-78.9-20.8
				c-25.6-5.2-51.7-7.7-77.8-7.7c-1,0-2.1-1.3-3.2-3.9c-1.1-2.4-1.8-5-2.1-7.7c0-4.2,1-6.4,3-6.4c9,0,17.6-3.4,25.8-10.1
				c7.2-6,18.6-17.3,34-33.8c15.4-16.6,40-43.3,73.7-80.2c47.3-51.8,78.9-85.8,94.6-101.7c-8.2,0-20.6-0.2-37-0.7
				c-24.4-0.5-42.1-0.8-53.1-0.8c-26.7,0-48,1.1-64.1,3.2c-16.1,2.1-25.9,5.8-29.4,11c-2.1,3.2-3.8,6.7-5.1,10.3
				c-1.4,3.9-2.3,6.5-2.8,8c-2.2,0-4.5-1.1-6.7-3.4c0.5-2.2,1.6-10,3.4-23.2l1.1-10.1c0.8-5.2,3.6-8.1,8.6-8.6
				c22.4-1.7,57.1-2.6,104-2.6l71,0.4c10.2,0.3,22.4,0.4,36.6,0.4c3.5,0,5.7,1.2,6.5,3.7c1,3.4,1.6,6.9,1.7,10.5
				c-5.7,1-11.1,4.1-16.1,9.4c-2.7,3-20.1,21.1-52,54.2c-57.1,59.1-101.6,106.9-133.5,143.6c-7.1,8.2-15.2,15.6-23.9,22.1
				c13.5,2.5,27.2,5.5,41.3,9.2c14.1,3.6,32.6,8.7,55.5,15.1l31.8,9c24.4,7,46.5,12.3,66.2,16.1c18,3.6,36.3,5.4,54.6,5.6
				c17.7,0,31.5-1.9,41.3-5.6c9.8-3.7,16-9.8,18.5-18.3C501.2,312,503.3,314.4,504.5,317.2z"/>
		</g>
	</g>
	<g id="Text_Label">
		<g id="Company_Name">
			<path class="st1" d="M502.7,199.6c-6.3-1.4-13.8-3.4-22.4-6c-3.7-1.3-7.4-2.5-11.2-3.5c-3.4-1-6.8-1.6-10.3-1.8
				c-1.8-0.1-3.6-0.4-5.3-0.8c-2.2-0.9-4.2-2-6.1-3.3c1.5-1.9,2.9-3.9,4.2-6c1.1-2.1,1.9-4.5,2.2-6.8c3.3-14.9,9-42.7,17-83.5
				s12-63.9,12-69.3c0-3.5-2-5.3-5.9-5.3c-3,0-8.6,0.7-17,2c-14.7,2.1-24.1,3.1-28.2,3.1c-4.1,0-7.1-0.8-9.1-2.2s-2.9-4.2-2.9-8.1
				c0-2.7,0.5-5.3,1.4-7.8c3,1.5,6.2,2.6,9.5,3.4c4.6,0.7,9.3,1,14,0.8c4.8,0,11.2-0.2,19.1-0.6l17.7-0.8
				c18.6-1.1,31.8-1.7,39.4-1.7c32.6,0,58.7,7.1,78.2,21.2c19.6,14.2,29.3,37.5,29.3,70.1c0,22.2-4.6,41.5-13.8,58.1
				s-21.7,29.2-37.4,38c-15.7,8.8-33.2,13.1-52.4,13.1C517.4,201.8,510,201.1,502.7,199.6z M569,177c13.3-8.5,23.9-20.3,31.7-35.4
				c7.8-15.1,11.7-32.2,11.7-51.4c0-28.7-8.4-49-25.3-60.9c-16.9-11.9-38.6-17.9-65.2-17.9c-7.8,0-13.2,0.6-16.2,1.7
				c-2.9,1-5,3.4-5.6,6.4c-8.9,44.5-18,90.3-27.1,137.5c-1.3,5.8-2,9.7-2,11.7c0,2.4,1.6,4.7,4.8,6.7c6.9,4.6,14.4,8.1,22.4,10.4
				c8.6,2.6,17.6,3.9,26.6,3.9C540.4,189.9,555.8,185.4,569,177L569,177z"/>
			<path class="st1" d="M782.6,136.9c0,7.5-4.8,16.2-14.4,26.1c-10,10.2-21.4,18.9-34,25.7c-13,7.2-23.9,10.8-32.7,10.8
				c-8.4,0-15.7-2.2-21.8-6.6c-5.7-3.9-10.5-8.9-14.1-14.7c-3.3-5.4-4.9-9.4-4.9-12c3-10.6,6.2-25.3,9.8-44.1l3.1-15.6
				c0.7-3.7,3.4-7.6,8.1-11.6c4.7-4.1,10-7.4,15.7-10c5.8-2.7,10.4-4,14-4c3.5,0.2,7,1.1,10.2,2.6c4.1,1.9,7.8,4.7,10.6,8.2
				c3.1,3.7,4.6,8.5,4.6,14.3c-0.1,6.9-2.4,13.6-6.7,19c-4.5,6-11.1,10.8-19.8,14.5S691,145,678.7,145l-3.9,18.7
				c0,1.7,1,4.5,2.9,8.4c2.3,4.3,5.5,7.9,9.5,10.6c4.4,3.2,9.9,4.8,16.6,4.8c8.9,0,18.3-2.9,28.2-8.8c10-6,19.2-13.4,27.1-21.9
				c8.2-8.7,14.3-17.2,18.4-25.4C781,131.9,782.6,133.7,782.6,136.9z M700.5,95c-3.5,1.9-6.8,4.2-9.6,7c-2.9,2.8-4.6,5.4-5.2,7.8
				c-1.9,8.4-3.5,16.9-5,25.4c14.3-0.6,25.1-3.4,32.4-8.5c7.3-5.1,10.9-10.9,10.9-17.5c0.1-4.5-1.8-8.9-5-12c-3.3-3.4-6.6-5-9.8-5
				C706.9,92.2,704,93.1,700.5,95L700.5,95z"/>
			<path class="st1" d="M758.5,195.3c-6.2-4.3-9.4-9.2-9.4-14.8c-0.1-2.7,0.8-5.2,2.5-7.3c1.4-1.7,3.4-2.9,5.6-3.4
				c2,7.1,5.4,12.4,10.1,15.9c4.7,3.5,10.3,5.3,17,5.3c8.4,0,15.1-2.4,20.1-7.1c5-4.8,7.5-10.3,7.5-16.6c0.1-4.4-1.3-8.8-4-12.3
				c-3.6-4.5-7.7-8.6-12.2-12.3c-4.9-4.1-9.3-8.6-13.3-13.5c-2.9-4-4.5-8.9-4.3-13.8c0-5.9,2-11.7,5.4-16.5c3.6-5.2,8.4-9.5,14-12.6
				c5.4-3.1,11.5-4.7,17.7-4.8c5.2-0.1,10.3,1.1,15,3.5c4.6,2.3,6.8,5.5,6.8,9.4c0,3.7-2.2,7.6-6.7,11.7c-2.1-4-5.2-7.4-8.9-9.9
				c-3.3-2.2-7.2-3.5-11.2-3.5c-6,0-10.5,2.2-13.5,6.6s-4.6,8.7-4.6,13c0,3.5,1.3,6.9,3.6,9.5c3.5,3.8,7.4,7.4,11.5,10.6
				c5.3,4.4,10.2,9.2,14.5,14.5c3.3,4.3,5.1,9.6,5,15.1c0,6.1-2,12.3-6,18.4c-4.2,6.3-9.8,11.5-16.5,15.2c-7,4-15,6.1-23,6
				C772.3,201.7,764.7,199.6,758.5,195.3z"/>
			<path class="st1" d="M876.1,193.5c-5.1-4.4-7.7-10.8-7.7-19.4c2.8-8.9,7.6-28.8,14.5-59.5c3.3-15.1,5.4-24.1,6.2-27.1
				c2.4-4.1,5.8-6.1,10.1-6.1c2.8,0,4.2,0.9,4.2,2.8c-1.3,4.7-3.1,12.1-5.5,22.2c-2.3,10.1-4.1,18.1-5.5,23.9
				c-5.1,23.1-8.5,37.9-10.3,44.4c0,4.3,1.3,7.6,3.8,9.9c2.7,2.4,6.3,3.7,9.9,3.5c9.3,0,18.7-3.3,28.1-9.9
				c9.3-6.5,17.7-14.2,24.9-23c7.2-8.8,12.5-16.3,16.1-22.6c1,0.3,1.8,0.9,2.2,1.8c0.4,1.4,0.6,2.9,0.5,4.3
				c-0.1,3.1-1.1,6.1-2.8,8.7c-10.1,15.8-21.3,28.6-33.8,38.3c-12.5,9.7-25,14.5-37.4,14.5C887.1,200.1,880.9,197.7,876.1,193.5z
				 M900.2,43.7c-1.5-1.9-2.3-4.4-2.2-6.9c0-3.7,1.3-7.3,3.6-10.2c2.1-2.9,5.6-4.7,9.2-4.6c3,0,5.2,0.9,6.6,2.8
				c1.4,1.9,2.2,4.3,2.1,6.7c0,3.7-1.3,7.3-3.8,10.2c-2.2,2.9-5.7,4.6-9.4,4.6C904,46.5,901.8,45.5,900.2,43.7z"/>
			<path class="st1" d="M1046.6,76.6c1.4,1,2.6,2.2,3.8,3.5c0.7,1,1.1,2.2,1,3.5c-0.1,1.9-0.5,3.8-1.1,5.6
				c-3.7,14.3-8.7,34.9-14.8,61.7c-4.1,18.3-7.8,33.9-11.2,46.9c-9.7,39.3-19.6,71-29.8,95s-22.8,42.4-38,55.2
				c-15.2,12.8-34.1,19.1-56.9,19.1c-14.9,0-27.5-2.6-37.7-7.7c-10.2-5.1-17.8-11.6-22.6-19.4c-4.6-7.2-7.2-15.5-7.3-24
				c0-1.6,0.2-3.1,0.6-4.6c0.7-1.9,1.7-3.7,2.8-5.5c11,30,32.6,45,64.8,45c20.1,0,36.9-5.9,50.3-17.7c13.4-11.8,24.7-28.5,33.8-50
				c9.1-21.5,18.2-49.9,27.1-85.1l1.4-5.6c0.4-1.5,0.7-2.9,1.1-4.2c0.4-1.3,0.6-2.6,0.8-3.9c-5.2,5-11.4,9-18.2,11.7
				c-6.9,2.8-12.7,4.2-17.3,4.2c-5.1-0.1-10-1.7-14.1-4.8c-4.5-3.1-8.2-7.2-11-11.9c-2.7-4.2-4.1-9-4.2-13.9
				c1.1-4.5,2.4-10.1,3.9-17c1.5-6.9,2.6-12.2,3.3-15.9l6.7-30.2c0.9-3.9,3.9-8.1,8.9-12.6c5.2-4.5,10.9-8.3,17.2-11.2
				c6.4-3,12-4.5,16.6-4.5c5,0,10,1.9,14.8,5.6c5.2,4.1,9.5,9.1,12.8,14.8c1.1-5.2,2.1-11.4,3.1-18.4l1.4-9.2l1.1-0.3
				C1042,73,1044.2,74.9,1046.6,76.6z M1031,113.7c-3-6.2-7.1-11.8-12.1-16.5c-4.6-4.1-9-6.1-13.3-6.1c-3,0-6.6,1-10.9,2.9
				c-4.3,2-8.3,4.6-11.7,7.8c-3.3,2.8-5.6,6.6-6.7,10.8c-1.3,5.6-3.7,18.1-7.3,37.4l-3.3,19c0.1,4.6,1.8,9.1,4.9,12.6
				c3.3,3.9,7,5.9,11.3,5.9c3.2,0,7.6-1.1,13.4-3.3c5.8-2.3,11.2-5.5,15.9-9.6c4.6-3.8,7.8-8.9,9.2-14.7L1031,113.7z"/>
			<path class="st1" d="M1216.3,132.3c0.9,1.7,1.3,3.6,1.3,5.4c0,6.7-3.5,15.2-10.6,25.4c-7.3,10.5-16.5,19.6-27,26.8
				c-10.9,7.6-21.6,11.5-32.3,11.5c-6.7,0-11.8-1.7-15.5-5c-3.7-3.3-5.5-8.5-5.4-15.4c0-9.5,2.6-22.4,7.8-38.7
				c5.2-16.3,10-29.9,14.3-40.6c-0.8-1.1-1.5-1.7-2.2-1.7c-0.9,0-1.8,0.3-2.5,0.8c-3.3,2.1-8.8,6.6-16.5,13.7
				c-7.7,7.1-15.1,14.5-22.3,22.4c-7.3,7.8-12.2,14.2-14.8,19c-3,8-4.8,13.1-5.6,15.2c-1,3.4-1.8,6.9-2.2,10.5l-2.5,12.6
				c-0.2,0.6-0.4,1.3-0.6,2.1c-0.1,0.6-0.3,1.1-0.7,1.5c-0.4,0.2-0.8,0.3-1.3,0.3c-2.2,0-4.4-0.2-6.6-0.6c-2.7-0.4-4-0.9-4-1.7
				c0-2.2,0.7-5.9,2-10.9c1.3-5,2.6-9.6,3.9-13.7c1.3-4.1,2.3-7.3,3.1-9.5l2.5-7.8c5.4-18.6,9.1-32.2,11-40.6
				c1.9-8.5,3.8-17.9,5.7-28.4c0.2-1.9,1.5-2.8,3.9-2.8c2,0.1,3.9,0.5,5.7,1.3c2.1,0.8,3.4,2,3.8,3.5c-0.7,3.3-2.1,9-4,17
				c-1.9,8-4.3,16.8-7.1,26.5c10.4-11.8,21.7-22.8,33.7-33c11.6-9.9,19.4-14.8,23.3-14.8c1.9,0,4.1,0.9,6.7,2.8s4.2,3.6,4.8,5.3
				c-6,16-11.6,33.5-17,52.4c-5.4,18.9-8.1,31.4-8.1,37.3c0,6.5,3.7,9.8,11.2,9.8c11,0,22.1-6.1,33.4-18.4
				c11.3-12.3,20.4-26.5,27-41.9C1214.2,129.8,1215.7,130.8,1216.3,132.3z"/>
			<path class="st1" d="M1528,213.3c1.2,2.5,1.7,5.2,1.7,8c0,6.7-2.9,12.6-8.8,17.6c-5.9,5-14.9,7.5-27.2,7.5
				c-12.1,0-24.2-1.6-35.9-4.6c-12.2-3.1-28.5-8-48.8-14.7l-25.7-8.4c-19.4-6.2-39.1-11.4-59-15.5c-19.1-3.9-38.6-5.8-58.1-5.7
				c-0.8,0-1.5-1-2.4-2.9c-0.8-1.8-1.3-3.8-1.5-5.7c0-3.2,0.7-4.8,2.2-4.8c6.7,0,13.1-2.5,19.3-7.5c5.4-4.5,13.9-12.9,25.4-25.3
				c11.6-12.4,29.9-32.4,55-59.9c35.4-38.7,58.9-64.1,70.7-76c-6.2,0-15.4-0.2-27.7-0.6c-18.3-0.4-31.5-0.6-39.7-0.6
				c-19.9,0-35.9,0.8-47.9,2.4c-12,1.6-19.3,4.3-21.8,8.2c-1.6,2.4-2.8,5-3.8,7.7c-1,2.9-1.7,4.9-2.1,6c-1.9-0.1-3.7-1-5-2.5
				c0.4-1.7,1.2-7.5,2.5-17.3l0.8-7.5c0.6-3.9,2.7-6.1,6.4-6.4c16.8-1.3,42.7-2,77.7-2l53.1,0.3c7.6,0.2,16.8,0.3,27.4,0.3
				c2.6,0,4.2,0.9,4.9,2.8c0.8,2.5,1.2,5.2,1.3,7.8c-4.3,0.7-8.3,3.1-12,7c-2.1,2.2-15,15.7-38.8,40.5
				c-42.7,44.1-75.9,79.9-99.7,107.3c-5.3,6.1-11.3,11.7-17.9,16.5c10.1,1.9,20.3,4.1,30.9,6.8c10.5,2.7,24.3,6.5,41.4,11.4
				l23.8,6.7c18.3,5.2,34.7,9.2,49.4,12c13.4,2.7,27.1,4.1,40.8,4.2c13.2,0,23.5-1.4,30.9-4.2c7.4-2.8,12-7.4,13.8-13.7
				C1525.5,209.5,1527.1,211.2,1528,213.3z"/>
			<path class="st1" d="M1631.7,105.1c0,4.7-1.9,9.5-5.6,14.4c-4,5.2-9.3,9.4-15.2,12.2c-6.6,3.2-13.8,4.8-21.1,4.8
				c-9.7,0.2-19.2-2.8-27.1-8.4c-1.1,5.4-2.5,10.9-4.2,16.5c-0.6,2.1-1.8,6.8-3.6,14.1c-1.7,6.5-3,13.1-3.9,19.7
				c-1.3,3-3.9,6.2-7.8,9.6c-4.2,3.6-8.9,6.6-14,8.8c-5,2.3-10.4,3.6-15.9,3.6c-5.9,0-11.6-1.6-16.7-4.5c-5.3-2.9-9.9-7-13.3-12
				c-3.4-4.9-5.2-10.8-5.2-16.8c2.6-7.8,4.8-15.2,6.4-22.1c1.7-6.9,3.3-13.9,4.8-21l2.8-14c0.9-4.3,3.4-8.5,7.6-12.7
				c4.3-4.3,9.4-7.8,14.9-10.3c5.5-2.6,11.6-4,17.7-4c3.2,0.1,6.4,0.5,9.5,1.1c0.6-4.3,1.5-7.3,2.9-8.9c1.4-1.7,3.7-2.5,6.8-2.5
				c2.2,0,4.3,0.3,6.4,0.8c-0.9,4.4-1.3,8.9-1.4,13.4c0,10.8,3.3,19.9,9.8,27.4c6.5,7.5,15.4,11.2,26.6,11.3
				c8.4,0,15.6-2.2,21.7-6.7c6.1-4.5,10.8-10.9,14.3-19.3C1630.7,100,1631.7,101.9,1631.7,105.1z M1545,148.1
				c3.7-12.5,6.1-22.5,7.3-30.2c-4.3-5.6-7.1-12.1-8.4-19c0-0.6-0.1-1.3-0.4-1.8c-0.4-0.6-1.1-0.9-1.8-1c-3-1.2-6.3-1.7-9.5-1.7
				c-6.4-0.2-12.7,1.8-17.9,5.6c-5,3.7-8.2,8.2-9.5,13.4c-0.5,2.2-2.6,11-6.1,26.3c-1.7,8.9-3.7,17.8-6.2,26.5
				c0,6.9,2.3,12.2,7,16.1s9.6,5.7,14.8,5.7c4.5,0,9.3-1.6,14.4-4.8c5.1-3.2,8.4-6.4,9.9-9.8C1540.1,166,1542.2,157.6,1545,148.1
				L1545,148.1z"/>
			<path class="st1" d="M1748.6,132.3c0.9,1.7,1.3,3.6,1.3,5.4c0,6.7-3.5,15.2-10.6,25.4c-7.3,10.5-16.5,19.6-27,26.8
				c-10.9,7.6-21.6,11.5-32.3,11.5c-6.7,0-11.9-1.7-15.5-5c-3.6-3.3-5.4-8.5-5.4-15.4c0-9.5,2.6-22.4,7.8-38.7
				c5.2-16.3,10-29.9,14.3-40.6c-0.7-1.1-1.5-1.7-2.2-1.7c-0.9,0-1.8,0.3-2.5,0.8c-3.3,2.1-8.8,6.6-16.5,13.7
				c-7.7,7.1-15.1,14.5-22.3,22.4c-7.3,7.8-12.2,14.2-14.8,19c-3,8-4.8,13.1-5.6,15.2c-1,3.4-1.8,6.9-2.2,10.5l-2.5,12.6
				c-0.2,0.6-0.4,1.3-0.6,2.1c0,0.6-0.3,1.1-0.7,1.5c-0.4,0.2-0.8,0.3-1.3,0.3c-2.2,0-4.4-0.2-6.6-0.6c-2.7-0.4-4-0.9-4-1.7
				c0-2.2,0.7-5.9,2-10.9c1.3-5,2.6-9.6,3.9-13.7c1.3-4.1,2.4-7.3,3.1-9.5l2.5-7.8c5.4-18.6,9.1-32.2,11-40.6
				c1.9-8.5,3.8-17.9,5.7-28.4c0.2-1.9,1.5-2.8,3.9-2.8c2,0.1,3.9,0.5,5.7,1.3c2.1,0.8,3.4,2,3.8,3.5c-0.7,3.3-2.1,9-4,17
				s-4.3,16.8-7.1,26.5c10.4-11.8,21.7-22.8,33.7-33c11.6-9.9,19.4-14.8,23.3-14.8c1.9,0,4.1,0.9,6.7,2.8s4.2,3.6,4.7,5.3
				c-6,16-11.6,33.5-17,52.4c-5.4,18.9-8.1,31.4-8.1,37.3c0,6.5,3.7,9.8,11.2,9.8c11,0,22.1-6.1,33.4-18.4
				c11.3-12.3,20.4-26.5,27-41.9C1746.3,129.9,1747.9,130.8,1748.6,132.3z"/>
			<path class="st1" d="M1894.8,140.8c0,8.6-3.8,17.6-11.3,27.1c-7.6,9.6-16.9,17.7-27.4,23.9c-10.7,6.4-20.5,9.6-29.5,9.6
				c-7.3,0-12.8-2.2-16.8-6.7s-6.2-10.2-7-17.3c-4.6,6.7-10.6,12.3-17.6,16.5c-7.1,4.3-13.4,6.4-19,6.4c-5.2-0.1-10.2-1.8-14.4-4.9
				c-4.7-3.2-8.6-7.2-11.6-12c-3-4.7-4.6-9.3-4.8-13.5l13.7-56.4c1.1-4.5,4-9.3,8.5-14.4c4.7-5.2,10.3-9.5,16.6-12.7
				c6.1-3.2,12.9-5,19.8-5c8.4-0.1,16.5,3,22.6,8.7c1.7-4.5,2.9-7.3,3.8-8.4c0.9-1.2,2.3-1.9,3.8-2l13.7-1.4l0.8,0.6
				c-3.7,3-6.4,7.6-8.1,14c-5.8,21.6-9.7,37.5-11.9,47.8c-2,8.9-3.1,18-3.2,27.1c0,7.8,1,13.5,3.1,17.2s5.5,5.5,10.3,5.5
				c6,0,13.1-2.4,21.4-7.3c8.9-5.4,16.9-12.2,23.6-20.3c7.4-8.6,13.2-18.5,17-29.2C1893.6,133.5,1894.8,136,1894.8,140.8z
				 M1779,183.8c4.8-2.4,9.2-5.7,12.9-9.6c3.9-4,6.7-9,8.2-14.4l5.3-22.9c0.7-3.7,2-9.7,3.9-18c1.9-8.3,3.4-14.7,4.5-19.1
				c-5-5.1-11.9-8-19-7.8c-5.6-0.1-11,1.5-15.7,4.6c-4.5,2.9-8.4,6.7-11.4,11.2c-3,4.4-4.8,8.2-5.6,11.6l-11.2,49.7
				c0.4,4.7,2.4,9.1,5.6,12.6c3.4,3.7,7,5.6,10.9,5.6C1770.6,187.2,1774.5,186.1,1779,183.8z"/>
		</g>
		<g id="My_Name">
			<path class="st1" d="M467.6,307.9c0-1.3,0.8-3,2.5-5.1s3.7-4.4,6.1-7s5.1-5.5,8-8.5c2.9-3,5.5-6.2,8-9.6
				c2.3-3.2,4.4-6.6,6.1-10.1c1.6-3.2,2.4-6.6,2.4-10.2c0-1.6-0.5-3.3-1.5-4.6c-1-1.3-2.3-2.4-3.8-3.3c-1.6-1-3.4-1.7-5.2-2.2
				c-1.9-0.5-3.9-0.9-5.8-1.2c-2-0.3-3.8-0.5-5.6-0.6s-3.3-0.2-4.5-0.2c-0.3,0-0.8,0-1.3,0l-1.6,0.1c-0.5,0-1.1,0.1-1.5,0.2
				l-0.8,0.1l-1.3,1.2c0,0.1,0,0.7,0,1.7s-0.1,2.1-0.1,3.3s0,2.5,0,3.8v3c0,6.6,0.2,13.2,0.7,19.7c0.5,6.5,0.7,13.1,0.7,19.7
				c0,0.4,0,0.8,0,1.3c0.1,0.4,0.1,0.9,0,1.3c-0.1,0.4-0.3,0.8-0.5,1.1c-0.4,0.3-0.8,0.5-1.3,0.4c-0.4,0-0.8-0.1-1.2-0.3
				c-0.4-0.2-0.6-0.6-0.7-1l-3.8-51.7c-0.3,0.2-0.7,0.4-1,0.5l-1.5,0.7c-0.5,0.3-1,0.5-1.5,0.8c-0.3,0.2-0.6,0.4-0.9,0.4l-0.3,0
				c-0.1,0-0.2,0-0.3,0c-0.4,0-0.8-0.1-1.1-0.2c-0.4-0.2-0.7-0.7-0.6-1.1c0-0.9,0.2-1.7,0.6-2.4c0.5-0.7,1-1.2,1.7-1.7
				c0.7-0.5,1.4-1,2.2-1.6c0.8-0.6,1.6-1.2,2.2-2c0.7-0.9,1.3-2,1.7-3.1c0.5-1.5,0.7-3.1,0.6-4.7c1.3,0,2.2,0.2,2.5,0.7
				c0.3,0.5,0.5,1,0.6,1.6c0.1,0.6,0.1,1.2,0.2,1.9s0.6,1.1,1.4,1.3c1.8-0.1,4-0.1,6.6,0c2.7,0.1,5.4,0.3,8.1,0.6
				c2.8,0.4,5.7,0.9,8.5,1.6c2.6,0.6,5.1,1.6,7.5,3c2.1,1.2,3.9,2.9,5.2,5c1.3,2.2,1.9,4.8,1.7,7.3c-0.9,5.1-2.5,10.1-4.9,14.7
				c-2.4,4.7-5.3,9.2-8.5,13.4c-3.3,4.3-6.8,8.4-10.5,12.3c-3.8,3.9-7.5,7.7-11.3,11.3c-0.1,0-0.2,0-0.3,0c-0.1,0-0.2,0-0.3,0
				c-0.6,0-1.1-0.2-1.5-0.6C467.8,308.9,467.6,308.4,467.6,307.9z"/>
			<path class="st1" d="M538.1,307.3c-0.3-1.7-0.6-3.7-0.8-6.1c-0.2-2.4-0.5-4.8-0.7-7.3s-0.6-4.8-0.9-6.9c-0.3-1.8-0.8-3.6-1.6-5.3
				c-2.6,5.5-5.6,10.9-8.8,16.1c-1.9,3.1-4.1,5.9-6.7,8.3c-1.9,1.7-3.5,2.5-4.9,2.4c-1.3-0.1-2.5-0.7-3.2-1.8
				c-0.9-1.3-1.5-2.7-1.8-4.3c-0.3-1.6-0.6-3.2-0.7-4.9c0.1-2.1,0.4-4.1,1-6.1c0.7-2.6,1.5-5.5,2.7-8.6c1.2-3.2,2.5-6.4,4-9.5
				c1.5-3,3.1-6,5-8.8c1.6-2.4,3.4-4.6,5.5-6.5c1.5-1.5,3.5-2.4,5.7-2.5c2.8-0.5,4.9,0.1,6.2,1.8c1.3,1.7,1.6,4.5,0.7,8.4
				c0,3.7,0.1,7.4,0.5,11.1c0.4,3.1,0.8,6,1.2,8.8c0.4,2.8,0.8,5.8,1.2,8.8c0.4,3.7,0.6,7.4,0.5,11.1c0,0.7-0.1,1.3-0.3,2
				c-0.2,0.6-1,0.8-2.4,0.8c-0.2,0-0.4-0.2-0.7-0.5C538.3,307.9,538.1,307.6,538.1,307.3z M532.8,263.4c-0.7-1-1.7-1.1-2.9-0.3
				c-1.6,1.2-2.9,2.6-3.9,4.2c-1.6,2.3-3,4.6-4.2,7.1c-1.4,2.8-2.8,5.5-4,8.3c-1.2,2.8-2.3,5.5-3.3,8c-0.8,2-1.4,4.1-1.9,6.2
				c0,2.4,0.4,3.7,1.1,4s1.6-0.1,2.7-1.1c1.3-1.4,2.5-2.9,3.6-4.5c1.3-2,2.7-4.1,3.9-6.3s2.5-4.4,3.6-6.5s2-3.8,2.7-5.1
				c0.5-1.2,1-2.5,1.4-3.8c0.3-1.2,0.6-2.3,0.8-3.4c0.2-1.1,0.4-2.2,0.4-3.3C532.7,265.8,532.8,264.6,532.8,263.4z"/>
			<path class="st1" d="M545.7,269.7c0-0.1,0-0.2,0-0.3c0-0.1,0-0.2,0-0.3c0-1,0.4-1.6,1.2-1.7c0.7-0.2,1.4-0.2,2.2-0.3
				c0.7,0,1.5,0.6,2.5,1.8c1.1,1.5,2.2,3.1,3.1,4.8c1.1,2,2.3,4.2,3.5,6.5c1.2,2.4,2.5,4.7,3.7,6.9c1.2,2.1,2.5,4.2,3.9,6.1
				c1.1,1.5,2.4,2.9,3.9,4c0.4-6,0.7-11,0.9-15.2c0.2-4.2,0.3-7.7,0.4-10.6s0.2-5.2,0.2-6.8s0-3,0-3.9s-0.1-1.5-0.1-1.8s0-0.5,0-0.6
				c0-1.2,0.2-1.9,0.6-2.2c0.5-0.3,1.1-0.4,1.7-0.4c0.9,0,1.8,0.1,2.7,0.4c0.9,0.2,1.5,1.1,1.4,2c0.2,4.3,0.2,8.6,0,12.9
				c-0.2,4.3-0.4,8.7-0.7,13s-0.6,8.5-0.8,12.6s-0.2,8.1,0,12c-0.3,0.2-0.6,0.4-0.9,0.4c-0.5,0.2-1,0.3-1.5,0.4
				c-0.5,0.1-1,0.2-1.5,0.3c-0.5,0.1-0.8,0.1-1,0.1c-0.7-0.1-1.7-1-3-2.7c-1.6-2-3.2-4.1-4.6-6.3c-1.7-2.6-3.5-5.4-5.3-8.5
				s-3.6-6.2-5.3-9.1c-1.7-2.9-3.1-5.6-4.4-8.1C547,272.6,546.2,270.8,545.7,269.7z"/>
			<path class="st1" d="M607.9,309.4l-25.3-40.6c-0.1-0.2-0.2-0.5-0.2-0.7c-0.1-0.3-0.1-0.7-0.1-1c0-0.8,0.1-1.5,0.4-2.2
				c0.3-0.6,1.1-0.9,2.3-0.9c0.5,0.1,0.9,0.2,1.4,0.4c0.5,0.2,0.9,0.4,1.2,0.8c1.4,2.3,2.9,4.9,4.5,7.7c1.5,2.8,3.1,5.6,4.8,8.5
				c1.7,2.8,3.4,5.5,5.3,8.1c1.7,2.4,3.6,4.6,5.8,6.6l2.4-38.5c0.2,0,0.4,0,0.5,0c0.3,0,0.5,0,0.6,0c0.6,0,1.2,0.1,1.8,0.3
				c0.6,0.2,1.1,0.7,1.3,1.3c0.1,2.4,0.1,5.3,0,8.8s-0.1,7-0.2,10.7s-0.2,7.2-0.3,10.6s-0.2,6.1-0.3,8.1c-0.1,1.3-0.2,3.3-0.3,5.9
				s-0.4,5.6-0.6,8.9s-0.5,6.8-0.8,10.5s-0.6,7.1-0.8,10.4s-0.5,6.2-0.7,8.9s-0.4,4.6-0.5,5.7h-5.1L607.9,309.4z"/>
			<path class="st1" d="M664.1,304.8c0.1-0.2,0.1-0.3,0.3-0.5c0.2-0.3,0.7-0.9,1.5-2.1s2.2-2.8,4-5.2s4.3-5.6,7.6-9.7
				s7.4-9.4,12.3-15.8s11-14.2,18.2-23.4V247c-3.3-0.4-6.8-0.7-10.3-0.9c-3.5-0.2-7-0.4-10.5-0.4c-3.5-0.1-7.1-0.1-10.6,0
				s-6.9,0.1-10.1,0.2c-0.6-0.5-0.9-1.2-0.8-2c-0.1-1-0.1-1.8-0.1-2.2c0-0.1,1.2-0.2,3.7-0.2s5.6,0,9.4,0s7.9,0,12.3,0l12.4,0.1
				l9.7,0.1h4.1l0.8,4.2l-45.2,56.6H700c2.8,0,5.6,0,8.4,0s5.6-0.2,8.3-0.4s5.8-0.5,8.9-0.8c0.5,0.2,1,0.6,1.1,1.1
				c0.1,0.5,0.1,0.9,0.2,1.4v1.4c0,0.4-0.1,0.8-0.2,1.2c-0.1,0.4-0.3,0.7-0.6,0.9c-0.4,0.2-0.8,0.3-1.2,0.2c-4.2,0.5-8.8,0.9-13.7,1
				c-4.9,0.1-9.8,0.3-14.7,0.3c-4.9,0.1-9.7,0.2-14.4,0.3c-4.7,0.2-9.1,0.4-13,0.8h-0.6c-0.2,0-0.5,0-0.7,0c-1.2,0-2.3-0.6-2.8-1.7
				C664.4,307.2,664.1,306,664.1,304.8z"/>
			<path class="st1" d="M767.2,266.9c-2.4-0.9-5-0.5-7,1.1c-2.5,1.9-4.7,4.3-6.4,6.9c-2.2,3.2-4.1,6.6-5.8,10.2
				c-1.8,3.8-3.5,7.4-5.1,10.8s-3,6.3-4.3,8.7c-1.3,2.4-2.4,3.8-3.5,4c-0.6,0-1.3-0.1-1.8-0.4c-0.4-0.3-0.6-1-0.6-2.2v-69
				c-0.1-0.5,0.3-1,0.7-1.1c0.5-0.1,1.1-0.2,1.6-0.1c0.6,0.1,1.1,0.2,1.7,0.4c0.4,0.1,0.8,0.4,1,0.7l1.3,55.3c0.9-1.6,1.6-3.3,2-5
				c0.6-2.1,1.4-4.4,2.2-6.9c0.9-2.5,1.9-5,3-7.4c1.1-2.4,2.5-4.6,4.3-6.6c3.7-4.3,9.3-6.5,14.9-5.7c2-0.1,4,0.7,5.4,2.1
				c1.4,1.5,2.2,3.5,2.2,5.5l1,39.2c0,0.4-0.1,0.8-0.1,1.1c-0.1,0.5-0.4,1-0.8,1.3c-0.5,0.4-1.1,0.6-1.8,0.7c-1,0.1-2-0.1-2.9-0.5
				L767.2,266.9z"/>
			<path class="st1" d="M803.8,298.4c-0.5,1.2-1.1,2.2-1.9,3.2c-1.1,1.4-2.3,2.8-3.6,4c-1.3,1.3-2.8,2.5-4.3,3.5
				c-1.1,0.9-2.5,1.4-3.9,1.5c-2.1,0-4.1-1.1-5.2-3c-1.5-2.3-2.5-4.9-3.1-7.6c-0.8-3.4-1.3-6.8-1.5-10.3c-0.3-3.8-0.4-7.4-0.5-11
				c-0.1-3.6-0.1-6.9-0.1-9.8c0-2.2-0.1-4.5-0.3-6.7c0.1-0.5,0.5-0.9,1-1.2c0.5-0.1,1-0.2,1.5-0.2c0.5,0,1,0.1,1.4,0.2
				c0.5,0.2,0.9,0.6,1.1,1.2c0,0.7,0,1.9,0,3.6s0.1,3.6,0.2,5.7s0.3,4.4,0.4,6.7s0.2,4.5,0.3,6.6s0.2,4,0.3,5.7s0.2,2.9,0.2,3.7
				c0.1,0.5,0.2,1.2,0.3,2.3c0.1,1.1,0.3,2.2,0.5,3.3c0.2,1.1,0.5,2.1,0.9,3.1c0.4,0.9,0.8,1.4,1.4,1.5c1.1,0,2.2-0.5,3-1.3
				c1.1-1,2.1-2,3-3.2c1-1.4,1.9-2.8,2.8-4.3c0.9-1.6,1.6-3.1,2.3-4.6c0.6-1.3,1.1-2.6,1.6-4c0.3-0.8,0.5-1.7,0.6-2.6
				c0.1-1.1,0.3-2.7,0.4-4.8s0.2-4.3,0.3-6.6s0.1-4.6,0.2-6.7s0-3.7,0-4.8l5.4,0.3c0.1,5.3,0,10.1-0.1,14.4
				c-0.1,4.3-0.2,8.3-0.1,12.1c0.1,3.7,0.3,7.4,0.9,11c0.6,3.8,1.5,7.4,2.8,11c-0.4,0.3-0.8,0.6-1.2,0.8c-0.4,0.3-0.8,0.5-1.3,0.5
				c-1.3,0.2-2.6-0.5-3.3-1.6c-0.6-1.2-1-2.5-1.1-3.8c-0.2-1.5-0.3-3-0.4-4.4C805.1,300.7,804.6,299.4,803.8,298.4z"/>
		</g>
	</g>
</g>
</svg>
